<?xml version="1.0" encoding="UTF-8"?>
<svg version="1.1" xmlns="http://www.w3.org/2000/svg" width="1658" height="270">
<path d="M0 0 C21.28824838 15.52864755 36.32497904 34.27953065 41.18359375 60.58203125 C44.16908902 83.67890831 37.75807197 105.88415973 23.67578125 124.21875 C13.61608646 136.18730529 0.08917942 144.03944312 -15.38671875 146.90625 C-16.15628906 147.05835938 -16.92585938 147.21046875 -17.71875 147.3671875 C-33.35192032 149.7004965 -50.68322308 145.03815583 -63.38671875 135.90625 C-74.29989732 127.32467041 -82.10742156 116.86156962 -84.38671875 102.90625 C-85.8385066 87.36498004 -81.0031667 71.89152841 -71.578125 59.53515625 C-66.60072844 54.06105484 -60.35010753 50.35736285 -53.38671875 47.90625 C-50.01953125 47.75 -50.01953125 47.75 -47.38671875 47.90625 C-47.38671875 48.56625 -47.38671875 49.22625 -47.38671875 49.90625 C-47.99257812 50.16277344 -48.5984375 50.41929688 -49.22265625 50.68359375 C-61.82990613 56.44413716 -70.77631241 65.64703191 -75.69921875 78.59375 C-79.5499364 90.11394678 -79.3089451 100.09609763 -74.35546875 111.22265625 C-67.98437509 123.59893616 -57.57310408 132.28685223 -44.38671875 136.84375 C-29.35315221 141.27747763 -13.96703883 139.0411116 -0.234375 131.6953125 C14.46708369 122.45900512 25.12080717 107.23680647 29.55078125 90.53125 C33.32057387 71.09325681 29.01101945 52.59994855 18.61328125 35.90625 C15.43966367 31.34660352 11.88790153 27.05982618 7.8515625 23.23828125 C6.61328125 21.90625 6.61328125 21.90625 6.61328125 19.90625 C6.05382812 19.65230469 5.494375 19.39835937 4.91796875 19.13671875 C2.28859901 17.7329027 0.09594946 16.04253893 -2.26171875 14.21875 C-18.74428474 2.15780198 -37.43921651 -3.67712524 -57.82421875 -1.46875 C-76.33203422 1.44044126 -92.56923534 9.35326175 -106.38671875 21.90625 C-107.00675781 22.44507813 -107.62679687 22.98390625 -108.265625 23.5390625 C-124.3731503 38.413297 -134.8708743 62.02045529 -136.60961914 83.68334961 C-137.83615915 114.62765596 -127.89538127 140.49274181 -107.22265625 163.55078125 C-105.38671875 165.90625 -105.38671875 165.90625 -105.38671875 168.90625 C-104.65839844 169.14472656 -103.93007812 169.38320312 -103.1796875 169.62890625 C-99.9656848 171.09880679 -98.18630904 172.84063981 -95.69921875 175.34375 C-89.04060514 181.57773018 -81.50717028 186.12092762 -73.60449219 190.62353516 C-72.09771509 191.49502424 -70.61140643 192.40268636 -69.14550781 193.34130859 C-63.71212394 196.69444896 -59.73336876 198.03986837 -53.38671875 196.90625 C-47.8603292 195.49293872 -42.47813788 193.72571414 -37.07421875 191.90625 C-35.4444344 191.36729655 -33.81454902 190.82864856 -32.18457031 190.2902832 C-9.4799515 182.73753901 12.94766819 174.36814418 35.3692627 166.02064514 C93.08250571 144.54644325 151.91841159 124.44113788 213.61328125 118.90625 C214.59515915 118.81710327 215.57703705 118.72795654 216.58866882 118.6361084 C225.10910873 117.93951853 233.55492528 117.82858877 242.09319496 117.95334625 C245.2308862 117.99645643 248.3686418 118.0190978 251.50652599 118.04337692 C257.30824729 118.08854398 263.10962673 118.14173428 268.91088867 118.22851562 C272.98601283 118.28868354 277.06070419 118.32307664 281.13622093 118.34169769 C282.66574003 118.35325061 284.1952247 118.37374877 285.72448158 118.40433502 C297.20136109 118.62816734 306.76149827 116.57060342 317.61328125 112.90625 C375.34905074 95.93743387 437.14457067 95.32615738 491.15625 124.28515625 C505.40378225 132.24819585 518.54309388 141.87806565 529.61328125 153.90625 C532.98891605 152.46168788 534.95688608 150.6616475 537.42578125 147.96875 C550.82682854 134.28163766 568.17478835 124.46230989 585.61328125 116.90625 C586.62519531 116.46539062 587.63710938 116.02453125 588.6796875 115.5703125 C631.40846259 98.07769793 680.56744504 98.07536877 724.98828125 108.71875 C726.05506104 108.97309814 727.12184082 109.22744629 728.22094727 109.48950195 C733.12220209 110.68998387 737.92938804 111.96689944 742.6953125 113.62890625 C760.8351259 119.67726896 779.53372953 118.32222776 798.40766907 118.0141449 C880.1099421 116.72456301 955.14474987 139.65164834 1030.79916859 168.02273178 C1049.77940687 175.13921135 1068.80662992 182.07953441 1087.98193359 188.65332031 C1091.38438543 189.82727371 1094.77522314 191.0296045 1098.1640625 192.2421875 C1100.04273697 192.90170227 1101.92162182 193.56061828 1103.80078125 194.21875 C1104.57856934 194.50355225 1105.35635742 194.78835449 1106.15771484 195.08178711 C1112.78858548 197.35749243 1119.24075998 198.10167421 1125.94140625 195.7265625 C1139.62757925 187.78565464 1151.85537561 178.47985046 1163.61328125 167.90625 C1164.75410156 166.89304688 1164.75410156 166.89304688 1165.91796875 165.859375 C1183.62611709 149.21798258 1195.28627429 123.5933407 1196.83203125 99.49609375 C1197.62047989 68.77944894 1185.70704651 41.75574872 1164.80078125 19.59375 C1151.22847049 6.52960689 1131.71437588 -1.95228165 1112.86328125 -2.46875 C1088.21799425 -1.81227177 1067.07803698 7.4729623 1049.61328125 24.90625 C1048.67935547 25.82277344 1048.67935547 25.82277344 1047.7265625 26.7578125 C1035.21934994 39.96767745 1028.19553114 58.49512925 1028.3984375 76.53125 C1029.38268875 91.99294242 1034.70608675 105.37019849 1043.61328125 117.90625 C1044.11214844 118.61523438 1044.61101562 119.32421875 1045.125 120.0546875 C1054.0966548 131.48959262 1068.52316901 137.90922622 1082.61328125 139.90625 C1097.32423739 141.06881796 1110.94796507 136.29799312 1122.76953125 127.578125 C1133.13952645 118.71345169 1137.61057085 108.12900485 1138.93359375 94.640625 C1139.20724365 86.94194121 1137.7661804 80.89594921 1134.61328125 73.90625 C1134.18015625 72.875 1133.74703125 71.84375 1133.30078125 70.78125 C1127.50122315 60.90052138 1120.60259287 55.2164723 1110.61328125 49.90625 C1110.61328125 49.24625 1110.61328125 48.58625 1110.61328125 47.90625 C1116.14254919 47.05559339 1119.07621142 49.10572304 1123.3828125 52.21484375 C1124.48689453 53.05208984 1124.48689453 53.05208984 1125.61328125 53.90625 C1126.23589844 54.35097656 1126.85851563 54.79570313 1127.5 55.25390625 C1136.66405546 62.31743664 1142.88100502 74.55021696 1144.61328125 85.90625 C1145.84079115 101.05318683 1144.55200962 114.75532462 1134.48828125 126.84375 C1123.39614762 139.3153717 1109.17273026 146.97111559 1092.44140625 148.125 C1074.52507046 148.61141636 1057.68486709 144.41022536 1044.05078125 132.34375 C1042.56046089 130.87582177 1041.08010502 129.39765741 1039.61328125 127.90625 C1038.99324219 127.36742187 1038.37320312 126.82859375 1037.734375 126.2734375 C1024.47911997 114.47121938 1018.94309491 94.90236151 1017.61328125 77.90625 C1017.52949219 76.83761719 1017.44570312 75.76898438 1017.359375 74.66796875 C1016.53078123 53.20471717 1026.17829395 32.41518657 1040.11328125 16.53125 C1041.59570466 14.9726747 1043.09498064 13.42989674 1044.61328125 11.90625 C1045.5878125 10.89691406 1045.5878125 10.89691406 1046.58203125 9.8671875 C1062.2914755 -5.2984683 1085.02771227 -13.9807441 1106.61328125 -15.09375 C1107.50015625 -15.14660156 1108.38703125 -15.19945313 1109.30078125 -15.25390625 C1133.62321195 -16.01398221 1157.77693167 -6.42549954 1175.61328125 9.90625 C1176.45375 10.66550781 1177.29421875 11.42476562 1178.16015625 12.20703125 C1199.47348122 32.42821379 1211.51890844 60.81420286 1212.57421875 89.9921875 C1213.17288154 121.82321559 1200.97035722 149.85474172 1180.61328125 173.90625 C1179.8759375 174.79054687 1179.13859375 175.67484375 1178.37890625 176.5859375 C1168.44342101 188.04746132 1156.1239556 196.48960031 1143.61328125 204.90625 C1148.07104946 206.49074641 1152.5271083 207.61083679 1157.16015625 208.52734375 C1157.87922653 208.67200073 1158.59829681 208.81665771 1159.3391571 208.96569824 C1184.47269464 213.97929544 1208.70575028 217.15081076 1234.36328125 217.28125 C1235.30283661 217.28937714 1236.24239197 217.29750427 1237.2104187 217.30587769 C1254.75657259 217.41963562 1272.68022057 216.36097838 1289.55078125 211.15625 C1290.40647705 210.90166016 1291.26217285 210.64707031 1292.14379883 210.38476562 C1300.01561235 207.95202109 1307.34317217 204.76134416 1314.61328125 200.90625 C1315.53367187 200.42414063 1316.4540625 199.94203125 1317.40234375 199.4453125 C1331.77157643 191.39320378 1340.52614483 179.86102059 1346.86328125 164.96875 C1349.86308087 152.71956822 1348.43197953 141.84930665 1342.515625 130.7109375 C1337.55049708 123.3906873 1329.76616966 118.11587357 1321.08984375 116.41015625 C1312.9298014 115.30157907 1305.78704024 116.85425866 1298.61328125 120.90625 C1297.54611421 122.70557579 1297.54611421 122.70557579 1296.61328125 124.90625 C1295.95328125 125.81375 1295.29328125 126.72125 1294.61328125 127.65625 C1292.28885394 131.43344438 1291.29562736 134.5633177 1290.61328125 138.90625 C1290.43345703 139.90591797 1290.43345703 139.90591797 1290.25 140.92578125 C1289.73827049 146.33405975 1291.50180389 150.49678245 1293.86328125 155.28125 C1294.16290771 155.88855957 1294.46253418 156.49586914 1294.77124023 157.12158203 C1296.5754393 160.54424674 1298.17373557 163.05318664 1301.61328125 164.90625 C1308.40353996 166.16876041 1313.01410073 164.63903701 1318.61328125 160.90625 C1319.27328125 160.90625 1319.93328125 160.90625 1320.61328125 160.90625 C1320.07040273 164.70639965 1318.49863482 166.44521313 1315.61328125 168.90625 C1312.43782222 169.96473634 1310.07319329 170.07295878 1306.73828125 170.09375 C1305.70960937 170.10792969 1304.6809375 170.12210938 1303.62109375 170.13671875 C1299.77513235 169.8420282 1296.95733885 169.04352951 1293.98828125 166.53125 C1287.02162235 158.29792585 1283.16089406 150.02225892 1283.80078125 139.15625 C1284.65658626 128.90798503 1288.61136076 120.35499809 1296.30859375 113.3671875 C1304.44555869 107.12763142 1314.72255732 106.70053752 1324.61328125 107.90625 C1336.07466836 110.95129355 1345.86087894 118.19606463 1352.61328125 127.90625 C1355.71307175 134.23626772 1358.24051209 140.82363588 1358.61328125 147.90625 C1358.67515625 148.90914062 1358.73703125 149.91203125 1358.80078125 150.9453125 C1359.37480148 167.12550759 1353.91735918 182.01142706 1343.23828125 194.21875 C1341.71576821 195.79991932 1340.1746815 197.36346952 1338.61328125 198.90625 C1337.94941406 199.59203125 1337.28554687 200.2778125 1336.6015625 200.984375 C1308.74746126 227.93653391 1262.71062519 231.15018783 1226.23828125 231.09375 C1225.05525421 231.09234512 1225.05525421 231.09234512 1223.84832764 231.09091187 C1194.06009253 231.01468967 1165.02494496 227.13251852 1136.12353516 219.78613281 C1124.63570743 216.93896235 1116.9922519 218.0393863 1105.73828125 221.65625 C1097.5209716 224.19673516 1089.3553416 226.61434599 1080.92578125 228.34375 C1080.19182129 228.49489258 1079.45786133 228.64603516 1078.70166016 228.80175781 C1071.08458358 230.30002491 1063.60197635 231.06787985 1055.84765625 231.14453125 C1055.02481644 231.1543251 1054.20197662 231.16411896 1053.35420227 231.17420959 C1033.7474533 231.35911922 1014.90701079 230.78493169 995.61328125 226.90625 C994.52063965 226.68662598 993.42799805 226.46700195 992.30224609 226.24072266 C942.05527995 215.84099171 895.81046153 195.1390215 849.515625 173.6953125 C767.4383542 135.70391926 712.88510566 135.7102302 627.6315918 166.8347168 C620.2365325 169.57853439 612.87754271 172.41198241 605.52734375 175.2734375 C604.56876465 175.6444458 603.61018555 176.0154541 602.62255859 176.39770508 C600.8516297 177.0851113 599.08344428 177.77965219 597.31884766 178.4831543 C592.70920218 180.28052787 588.54327038 181.4251147 583.61328125 181.90625 C583.72346987 178.27002554 584.92195296 176.1997026 587.30078125 173.59375 C604.74999309 157.27485147 632.64066982 150.19584351 654.49993896 141.72631836 C656.5682311 140.92373141 658.63514692 140.11770175 660.70166016 139.31054688 C698.32818174 124.62650018 698.32818174 124.62650018 717.61328125 124.84375 C718.38800781 124.84826172 719.16273438 124.85277344 719.9609375 124.85742188 C721.84508649 124.86905242 723.7291949 124.88698094 725.61328125 124.90625 C720.19256584 124.06182857 714.77060449 123.22606973 709.34741211 122.39770508 C707.50949661 122.11580045 705.67191831 121.83168688 703.8347168 121.54516602 C653.65965484 113.7279872 599.66450832 118.04205965 557.07421875 148.3125 C553.37072466 151.04427481 549.77616468 153.90122113 546.23828125 156.84375 C545.68398438 157.30450928 545.1296875 157.76526855 544.55859375 158.23999023 C542.01556626 160.42986452 540.69495511 161.66122841 539.61328125 164.90625 C540.35232415 166.93509547 540.35232415 166.93509547 541.59765625 169.0390625 C542.03851562 169.84601563 542.479375 170.65296875 542.93359375 171.484375 C543.40539062 172.32484375 543.8771875 173.1653125 544.36328125 174.03125 C549.03322972 182.39494302 553.23801317 190.11878325 552.61328125 199.90625 C547.05619065 197.4341619 544.72023122 192.99133003 541.61328125 188.03125 C538.30770932 182.80441926 535.20891305 178.07948917 530.61328125 173.90625 C526.89978394 176.62847607 524.53501162 179.17017594 522.16796875 183.109375 C521.56597656 184.0890625 520.96398437 185.06875 520.34375 186.078125 C519.09778007 188.14512354 517.85300489 190.2128427 516.609375 192.28125 C516.00996094 193.25578125 515.41054688 194.2303125 514.79296875 195.234375 C514.25397949 196.1305957 513.71499023 197.02681641 513.15966797 197.95019531 C512.64936035 198.59569336 512.13905273 199.24119141 511.61328125 199.90625 C510.62328125 199.90625 509.63328125 199.90625 508.61328125 199.90625 C507.73112387 188.21766477 513.18104539 179.28527371 519.61328125 169.90625 C521.82052132 167.1321229 521.82052132 167.1321229 521.80078125 164.21875 C518.61401607 155.3293524 507.53293973 150.02867941 499.80078125 145.46875 C498.70419189 144.81914307 497.60760254 144.16953613 496.4777832 143.50024414 C453.65676649 118.53970229 406.2250283 113.05647526 357.67578125 120.34375 C356.94311035 120.45284698 356.21043945 120.56194397 355.45556641 120.67434692 C353.37216286 120.98962195 351.29132453 121.31779298 349.2109375 121.65234375 C348.00961182 121.84497803 346.80828613 122.0376123 345.57055664 122.23608398 C342.44771507 122.75872919 342.44771507 122.75872919 339.61328125 124.90625 C340.53737793 125.08164307 341.46147461 125.25703613 342.41357422 125.43774414 C387.25312484 133.99025396 433.98442009 144.61948267 471.61328125 171.90625 C472.5465625 172.53917969 473.47984375 173.17210937 474.44140625 173.82421875 C476.61328125 175.90625 476.61328125 175.90625 476.74902344 178.53637695 C476.70422852 179.31843506 476.65943359 180.10049316 476.61328125 180.90625 C468.5614747 179.04466808 460.85690249 176.71955366 453.11328125 173.84375 C450.9075993 173.04023497 448.70186831 172.23685454 446.49609375 171.43359375 C443.07356724 170.17899193 439.65246623 168.92073633 436.23339844 167.65673828 C351.60012928 136.210715 351.60012928 136.210715 266.05078125 148.59375 C264.58599907 149.24797971 263.12098575 149.90169211 261.65576172 150.55493164 C248.82194237 156.29429707 236.06989305 162.21299749 223.31542969 168.12597656 C206.50110393 175.91521229 189.59194325 183.48242203 172.61328125 190.90625 C171.40865234 191.43331543 170.20402344 191.96038086 168.96289062 192.50341797 C103.13675946 221.16872893 22.24763846 247.77425782 -48.44921875 220.59375 C-49.39293335 220.19397949 -49.39293335 220.19397949 -50.35571289 219.78613281 C-60.96532579 215.58916574 -71.631924 218.34245089 -82.26171875 221.09375 C-84.91223097 221.75024029 -87.56655163 222.38998165 -90.22265625 223.0234375 C-90.89661438 223.1842128 -91.57057251 223.3449881 -92.26495361 223.51063538 C-130.4649497 232.48075912 -172.55731014 236.13164911 -211.38671875 228.90625 C-212.28197266 228.73996094 -213.17722656 228.57367188 -214.09960938 228.40234375 C-240.81775373 223.20126302 -269.54109358 211.79039038 -286.3203125 189.31640625 C-295.9255268 174.91891298 -300.08316452 160.13246469 -297.38671875 142.90625 C-295.75074929 136.26933125 -293.6640892 130.31586557 -289.38671875 124.90625 C-288.979375 124.34550781 -288.57203125 123.78476563 -288.15234375 123.20703125 C-282.07899325 115.34238355 -272.55066583 110.2207357 -262.83203125 108.4375 C-254.5477827 107.40490245 -246.15877172 107.56575204 -239.13671875 112.53125 C-237.85821171 113.62374474 -236.60775948 114.74988304 -235.38671875 115.90625 C-234.75765625 116.47214844 -234.12859375 117.03804687 -233.48046875 117.62109375 C-227.25615058 123.85859903 -224.75673728 131.50908312 -224.16015625 140.2109375 C-224.47505064 150.31178054 -228.5114664 159.48453582 -235.38671875 166.90625 C-240.92017531 169.94458722 -247.25844218 169.55983031 -253.38671875 168.90625 C-256.29248153 167.73653493 -258.16704647 166.12592228 -260.38671875 163.90625 C-260.42735707 162.24007885 -260.42943975 160.57236905 -260.38671875 158.90625 C-259.87882812 159.25558594 -259.3709375 159.60492188 -258.84765625 159.96484375 C-253.09573731 163.83069566 -253.09573731 163.83069566 -246.38671875 164.90625 C-241.52810459 163.52082339 -238.29827098 161.3187879 -235.51171875 157.09375 C-232.05033507 150.77701616 -230.13503289 144.08405916 -231.38671875 136.90625 C-234.55983507 128.14348037 -238.74398533 121.72761671 -247.13671875 117.53125 C-257.42734675 115.55228308 -264.50261691 117.30016767 -273.38671875 122.90625 C-276.304624 125.1566697 -276.304624 125.1566697 -278.38671875 127.90625 C-279.13695312 128.78410156 -279.13695312 128.78410156 -279.90234375 129.6796875 C-287.41604371 138.90767822 -288.4756034 148.16361896 -287.38671875 159.90625 C-284.05072952 175.09691523 -273.95057856 188.06758074 -261.19921875 196.59375 C-242.4287461 207.73054854 -221.93388143 213.16095577 -200.38671875 215.90625 C-199.68458252 216.00123779 -198.98244629 216.09622559 -198.2590332 216.1940918 C-189.89392302 217.19046543 -181.48531773 217.10639356 -173.07421875 217.09375 C-172.27070984 217.09281342 -171.46720093 217.09187683 -170.63934326 217.09091187 C-143.21079068 217.02167713 -116.03057676 213.48385335 -89.44140625 206.60546875 C-86.38671875 205.90625 -86.38671875 205.90625 -82.38671875 205.90625 C-82.38671875 205.24625 -82.38671875 204.58625 -82.38671875 203.90625 C-83.07894531 203.66648438 -83.77117187 203.42671875 -84.484375 203.1796875 C-87.9045004 201.6790672 -90.81498872 199.71083052 -93.82421875 197.53125 C-94.42967529 197.09425781 -95.03513184 196.65726563 -95.65893555 196.20703125 C-124.29771275 175.21487039 -145.50330992 146.51101725 -151.38671875 110.90625 C-155.59596943 79.69569127 -146.38243109 47.95133176 -127.38671875 23.03125 C-123.46045667 18.01176083 -119.35399315 12.93607311 -114.38671875 8.90625 C-113.72671875 8.90625 -113.06671875 8.90625 -112.38671875 8.90625 C-112.38671875 8.24625 -112.38671875 7.58625 -112.38671875 6.90625 C-110.23338731 5.23550915 -108.09607058 3.71419549 -105.82421875 2.21875 C-105.14891113 1.77321777 -104.47360352 1.32768555 -103.77783203 0.86865234 C-72.10402723 -19.53976489 -31.83755929 -21.50804005 0 0 Z M136.61328125 148.90625 C135.54706543 149.18629883 134.48084961 149.46634766 133.38232422 149.75488281 C96.27454232 159.63737303 60.03467425 172.65642177 24.00469971 185.85157776 C12.20441102 190.16539557 0.34463817 194.308641 -11.5165863 198.45120239 C-13.51959743 199.15141494 -15.52177661 199.85396801 -17.52392578 200.55664062 C-20.17160022 201.48513002 -22.82415268 202.39784782 -25.47998047 203.30273438 C-26.77055218 203.74856951 -28.06108141 204.19452764 -29.3515625 204.640625 C-31.06073853 205.22408691 -31.06073853 205.22408691 -32.80444336 205.81933594 C-35.52138263 206.63317673 -35.52138263 206.63317673 -36.38671875 208.90625 C-30.41597225 210.69182785 -24.42317899 212.35678427 -18.38671875 213.90625 C-17.70851074 214.0815625 -17.03030273 214.256875 -16.33154297 214.4375 C6.55637543 220.03271305 33.66925582 218.35865933 56.61328125 213.90625 C57.52368164 213.73464355 58.43408203 213.56303711 59.37207031 213.38623047 C103.88801591 204.83017703 145.37873942 186.88099325 186.28027344 167.91162109 C193.23096257 164.69065079 200.20221111 161.51480729 207.17578125 158.34375 C208.17489029 157.88909866 208.17489029 157.88909866 209.19418335 157.42526245 C220.21952585 152.41113031 231.28180648 147.48247421 242.36328125 142.59375 C243.09982941 142.26865448 243.83637756 141.94355896 244.59524536 141.60861206 C257.55517827 135.89251258 257.55517827 135.89251258 262.61328125 133.90625 C262.61328125 133.57625 262.61328125 133.24625 262.61328125 132.90625 C219.55270592 132.06799382 178.22197894 137.92378592 136.61328125 148.90625 Z M804.23828125 132.40625 C803.17867187 132.4990625 802.1190625 132.591875 801.02734375 132.6875 C800.23070312 132.7596875 799.4340625 132.831875 798.61328125 132.90625 C800.98408554 135.60260193 803.30063347 136.84580153 806.58203125 138.26171875 C807.60989746 138.71087646 808.63776367 139.16003418 809.69677734 139.62280273 C810.82422363 140.10821533 811.95166992 140.59362793 813.11328125 141.09375 C815.57504548 142.17003988 818.0360531 143.24791497 820.49609375 144.328125 C821.14663727 144.61312363 821.79718079 144.89812225 822.46743774 145.1917572 C829.60060188 148.32415607 836.68101899 151.56997933 843.76062012 154.82119751 C847.50404859 156.53952533 851.25019368 158.2519123 854.99609375 159.96484375 C856.46778281 160.63783758 857.93946265 161.31085157 859.41113281 161.98388672 C860.11806274 162.30717957 860.82499268 162.63047241 861.55334473 162.96356201 C863.49276389 163.85109769 865.43151771 164.74007023 867.37011719 165.62939453 C938.01470825 197.97656691 1018.24057204 231.22543458 1096.61328125 208.90625 C1095.18246115 206.04460979 1093.09417583 205.87452079 1090.19561768 204.90325928 C1089.41305603 204.64901184 1088.63049438 204.3947644 1087.82421875 204.1328125 C1086.10821172 203.55980481 1084.39222998 202.98672139 1082.67626953 202.41357422 C1081.29184662 201.95576569 1081.29184662 201.95576569 1079.87945557 201.4887085 C1062.23177631 195.64439799 1044.71700231 189.47042374 1027.2628479 183.07293701 C918.76082424 141.84256629 918.76082424 141.84256629 804.23828125 132.40625 Z " fill="#000000" transform="translate(298.38671875,37.09375)"/>
<path d="M0 0 C12.59147627 14.83885467 11.09832162 34.64105997 9.70117188 52.90673828 C8.95891753 60.62365752 8.03212043 68.3167418 7 76 C7.42700195 75.41774658 7.85400391 74.83549316 8.29394531 74.2355957 C12.05023448 69.24108806 15.78580703 64.98431265 20.75 61.1875 C21.35271729 60.72174561 21.95543457 60.25599121 22.57641602 59.77612305 C29.51925664 54.60405048 37.1483637 50.87342811 46 52 C52.07245995 53.35267938 57.02558896 55.15613692 62 59 C63.010625 59.70125 64.02125 60.4025 65.0625 61.125 C69.63786005 65.07260616 72.43919805 70.58757304 73.4140625 76.51953125 C73.86602551 89.56482708 67.29646383 100.79351898 58.77734375 110.26171875 C54.78669331 114.16466259 50.40517297 117.5816809 46 121 C45.17886719 121.64839844 44.35773438 122.29679687 43.51171875 122.96484375 C34.8867505 129.52411199 25.45480452 134.75072996 16 140 C15.13020508 140.4842041 14.26041016 140.9684082 13.36425781 141.46728516 C10.79249707 142.88932317 8.2113748 144.29224532 5.625 145.6875 C4.83480469 146.12175293 4.04460938 146.55600586 3.23046875 147.00341797 C-3.56629551 150.60941357 -3.56629551 150.60941357 -8 150 C-7.48087749 138.18548771 -5.88331101 126.66705248 -4 115 C-4.28198242 115.87736816 -4.56396484 116.75473633 -4.85449219 117.65869141 C-5.91319319 120.93754304 -6.98017356 124.21346119 -8.05273438 127.48779297 C-8.51372295 128.90078107 -8.97146356 130.31483338 -9.42578125 131.72998047 C-10.08245668 133.77345072 -10.75103271 135.81270543 -11.421875 137.8515625 C-11.81987305 139.07697754 -12.21787109 140.30239258 -12.62792969 141.56494141 C-14.08851135 145.22159335 -15.60807418 147.89025855 -18 151 C-18.66 151 -19.32 151 -20 151 C-57.88632973 49.4169055 -57.88632973 49.4169055 -43.7421875 11.640625 C-40.58975084 4.87361437 -37.79564811 0.00023614 -30.71484375 -2.953125 C-20.34703362 -6.47850093 -9.51555217 -5.79548033 0 0 Z M-29.8046875 8.48046875 C-38.03792554 17.430531 -38.57838545 29.13297072 -38.13183594 40.76806641 C-36.48017818 68.73002049 -29.62309642 98.10547526 -19 124 C-16.77433966 123.15891866 -16.77433966 123.15891866 -16.04199219 120.71289062 C-15.71360352 119.70419922 -15.38521484 118.69550781 -15.046875 117.65625 C-14.67763916 116.52380859 -14.30840332 115.39136719 -13.92797852 114.22460938 C-13.53924561 112.99548828 -13.1505127 111.76636719 -12.75 110.5 C-12.15046509 108.61764648 -12.15046509 108.61764648 -11.53881836 106.69726562 C3.43661047 60.07825091 3.43661047 60.07825091 -3.1875 13.1875 C-6.37594151 7.81403828 -9.9566319 5.99240264 -15.875 4.0625 C-21.0889308 3.95822138 -25.71705964 5.12719827 -29.8046875 8.48046875 Z M23.8984375 75.0859375 C13.97356854 90.32040714 4.05605692 114.59311003 5 133 C9.80013881 131.57472802 14.03960242 129.52705183 18.375 127.0625 C19.06182861 126.67425049 19.74865723 126.28600098 20.45629883 125.88598633 C29.97362928 120.40565598 39.7426484 114.27846862 48 107 C48 106.34 48 105.68 48 105 C48.56589844 104.78730469 49.13179687 104.57460937 49.71484375 104.35546875 C56.032332 100.6081723 62.09880833 91.06156905 64 84 C64.23422995 78.32271216 62.70256208 74.3671245 59 70 C53.66687953 65.42249619 48.54248339 61.32534378 41.20703125 61.5703125 C33.73464376 63.0251136 28.25767479 69.24490413 23.8984375 75.0859375 Z M5 78 C6 80 6 80 6 80 Z M-3 109 C-2 111 -2 111 -2 111 Z " fill="#000000" transform="translate(847,6)"/>
<path d="M0 0 C19.91758412 14.22197359 26.21936142 41.36084367 31.53125 63.81640625 C31.82515625 65.05068359 32.1190625 66.28496094 32.421875 67.55664062 C34.40821563 76.2146948 35.74911201 84.8144166 36.78125 93.62890625 C31.8121381 92.89311395 27.66922936 91.47763375 23.15625 89.31640625 C22.4240625 88.96666748 21.691875 88.61692871 20.9375 88.2565918 C5.01910002 80.4665583 -9.51984931 70.83914208 -23.21875 59.62890625 C-24.20746094 58.82582031 -25.19617188 58.02273437 -26.21484375 57.1953125 C-35.83610358 48.97989885 -43.549534 39.0441186 -45.59375 26.2890625 C-45.99817453 19.09788878 -43.49667809 12.41304058 -38.96875 6.87890625 C-38.06125 6.13640625 -37.15375 5.39390625 -36.21875 4.62890625 C-35.33703125 3.87480469 -35.33703125 3.87480469 -34.4375 3.10546875 C-23.95231242 -5.42414813 -11.67494056 -7.21461996 0 0 Z M-27.21875 10.62890625 C-28.146875 11.28890625 -29.075 11.94890625 -30.03125 12.62890625 C-33.72671571 16.00761776 -35.3928091 18.81277301 -35.71875 23.81640625 C-35.26089294 34.4703879 -27.69984734 42.71572053 -20.21875 49.62890625 C-16.21036706 53.07248218 -12.01546723 56.26314746 -7.78759766 59.43017578 C-5.74689904 60.98943974 -3.80685724 62.6610902 -1.84375 64.31640625 C2.16648032 67.44135931 6.50801718 69.72192868 11.03125 72.00390625 C11.71751465 72.35026123 12.4037793 72.69661621 13.11083984 73.0534668 C16.64910192 74.77764557 19.83782291 76.09394521 23.78125 76.62890625 C20.59702851 55.46141483 13.95035298 23.95847271 -3.59765625 9.6953125 C-12.53697642 3.78580772 -18.72986396 4.28956646 -27.21875 10.62890625 Z " fill="#000000" transform="translate(782.21875,62.37109375)"/>
<path d="M0 0 C3 1 3 1 3 1 Z " fill="#000000" transform="translate(1406,84)"/>
</svg>
